PathFileType	4	(X/Y/Z)	Patient4_TMGait_0pt7_02_left_43.trc.trc
DataRate	CameraRate	NumFrames	NumMarkers	Units	OrigDataRate	OrigDataStartFrame	OrigNumFrames
92.105263157895	92.105263157895	4	33	mm	92.105263157895	36	       141
Frame#	Time	Sacral			L.Shoulder			Chest			R.Shoulder			Neck			R.ASIS			L.ASIS			R.Thigh.Superior			R.Thigh.Lateral			R.Thigh.Inferior			R.Patella			L.Thigh.Superior			L.Thigh.Lateral			L.Thigh.Inferior			L.Patella			L.Shank.Superior			L.Shank.Lateral			L.Shank.Inferior			R.Shank.Superior			R.Shank.Lateral			R.Shank.Inferior			R.Heel			R.Midfoot.Superior			R.Midfoot.Lateral			R.Toe			L.Heel			L.Midfoot.Lateral			L.Midfoot.Superior			L.Toe			L.Elbow			L.Wrist			R.Elbow			R.Wrist			
		X1	Y1	Z1	X2	Y2	Z2	X3	Y3	Z3	X4	Y4	Z4	X5	Y5	Z5	X6	Y6	Z6	X7	Y7	Z7	X8	Y8	Z8	X9	Y9	Z9	X10	Y10	Z10	X11	Y11	Z11	X12	Y12	Z12	X13	Y13	Z13	X14	Y14	Z14	X15	Y15	Z15	X16	Y16	Z16	X17	Y17	Z17	X18	Y18	Z18	X19	Y19	Z19	X20	Y20	Z20	X21	Y21	Z21	X22	Y22	Z22	X23	Y23	Z23	X24	Y24	Z24	X25	Y25	Z25	X26	Y26	Z26	X27	Y27	Z27	X28	Y28	Z28	X29	Y29	Z29	X30	Y30	Z30	X31	Y31	Z31	X32	Y32	Z32	X33	Y33	Z33	

36	49.690000000000	720.636578662894	1012.508885914969	474.575526920627	908.172439791578	1425.192177129046	286.074983489316	1019.820349625900	1349.998680937581	439.187644543982	955.396250034893	1432.397673104277	617.109690564006	923.598524396316	1486.134016849200	440.060890955477	939.593015051632	934.399037000851	590.944763844906	930.486121131965	947.645670603098	316.227557776601	937.156237015830	720.741668906128	574.230541962180	829.528617873286	629.023167372350	632.357596485517	898.807875825564	557.814311428773	561.916663847630	875.259120646432	459.004219747928	575.586552647251	999.221711158281	767.226258237408	349.987490895897	934.863189363060	638.310496705996	281.476468506669	1033.977607136454	574.427472431142	341.649254116247	1047.397972985674	503.778404214767	347.056199352308	1027.213965527176	429.018137403397	338.283925551527	949.265941557818	306.753756394995	285.918321479838	1015.247815568245	199.298022673481	351.707230615308	807.720117762256	389.944790919801	578.114829787012	694.489361140709	330.181964949910	636.104241159689	697.217485425686	222.373048437069	579.332484296729	507.134576507565	111.464865801463	546.559897998858	686.824239940305	107.883454327123	585.072891000612	582.654617928721	71.464803381308	617.752311329609	781.318283538006	35.258475564606	604.585542975224	903.450989920419	38.537089523611	391.803307663589	978.127468636352	36.062764519447	311.381421612363	1059.905237353075	97.629443400646	338.357639731095	1189.274928926649	46.677811032765	311.281086821944	765.251576242391	1103.714462597483	188.144778078417	719.107561028939	846.560684010405	193.918433696373	1033.537671995257	1098.734081201191	736.396915888835	1250.836236987646	1164.082638309951	629.772951981136	
37	49.700857142857	720.967980181290	1014.434530136409	471.674321460827	909.597606528636	1426.831047232468	283.713224718837	1020.776666607310	1351.623150175381	437.067565223948	956.028548933124	1434.184591195340	614.783705357508	924.464236846777	1487.754715844314	437.603340465197	939.475834229178	935.986248425843	588.541103395277	931.296053606148	949.339438698180	314.141424957630	941.020030132619	722.665655211753	572.943602602350	835.488916732193	629.157715654327	631.106384177842	907.093193068544	558.688959986898	561.416559598521	884.354443167307	458.141953882808	576.475696634205	998.229430191768	766.596494850569	347.339527199117	931.504294506375	638.519932604336	279.940467805192	1029.435502964837	573.472166410616	340.753315095447	1041.876882370383	503.061791615722	346.534234084506	1021.442456522217	428.700339635072	337.506758168294	943.050579659343	306.700018955558	285.311405183094	1008.368293265822	199.139324133006	351.493848227669	814.313044698125	390.409878746172	578.506408226829	698.702247742905	334.683573444717	635.897335361585	698.575050966055	226.434063672935	580.012380944627	505.173227396139	123.350852190798	546.803748183105	684.248041642337	110.751265220470	586.022949180353	578.299209685104	79.008716179354	617.796948653264	774.149878018047	34.279400365589	604.757630928300	896.007419025340	38.419586423491	391.684315772305	970.680795997713	36.023658788346	311.268138387148	1052.414000030361	97.627903594085	338.315593835635	1181.837610326085	46.715921780039	311.217229073480	771.996187225502	1102.291897764395	185.409090021156	736.108484043693	843.374464099464	190.988838977089	1023.105434578725	1097.747263352108	735.159464622166	1245.308643345990	1149.742756131863	631.214555023599	
38	49.711714285714	721.086294265761	1016.135469884761	468.851807302390	911.158261694329	1428.255566422987	281.381196822095	1021.670365915546	1353.025848173273	435.106675466520	956.419233750804	1435.807431893390	612.520262775369	925.248568178814	1489.174379121779	435.157469765784	939.183663897305	937.394571007351	586.314063493198	931.933702886560	950.819384920322	312.266797153967	945.329002324671	724.662121221344	571.711582068634	842.169406328119	629.174144509176	629.902133651283	916.095315061283	559.642822753392	560.808512082094	894.243765901036	457.409742499509	577.004032763070	996.867752573454	765.711034981243	344.827283321955	927.867417687627	638.629746412375	278.433755399094	1024.609974224655	572.473713322130	339.890584689675	1036.074733629093	502.310104148388	345.984362159492	1015.427147952526	428.355626461715	336.712726132294	936.668439403780	306.564499304310	284.725426993547	1001.409441405126	198.966671260623	351.275016509535	821.785181176602	390.947630497280	578.610142392081	703.995954076233	339.364717799599	635.542442872070	700.752440299029	230.863987116282	580.452353709485	504.344918770485	136.267526519418	546.837820305944	682.203513224295	114.192297350973	586.827935778514	574.668976601298	87.615744625242	617.722210232037	767.146103241477	33.116295400297	605.051645814079	888.554123701264	38.315830849279	391.608760390372	963.215898988523	35.966101690377	311.181967790370	1044.946671218014	97.561933933468	338.289588490460	1174.405471457785	46.605345810667	311.168735293152	778.848600825923	1100.846007213223	182.556054848506	754.066124617605	840.476027346914	188.066986810692	1012.524214807036	1097.050924058283	733.754106209051	1239.281305608998	1134.093849106148	633.009980131868	
39	49.722571428571	720.960368282425	1017.558913731296	466.154534021024	912.830792873474	1429.411021062126	279.093000044632	1022.482736838414	1354.152085923541	433.322452020249	956.562090255742	1437.226519508891	610.339974242793	925.953629697417	1490.359578421721	432.737762604364	938.722064796741	938.585224002184	584.268546594080	932.347394269191	952.059971953077	310.572436621274	949.998431985062	726.753656818639	570.460162523270	849.532000049992	629.130867237916	628.725167877786	925.687078008220	560.738118223294	560.007301306847	904.833137886687	456.879574349540	577.094379753159	995.196735954042	764.682988990786	342.497453310579	924.122028991279	638.703918612159	276.942226646398	1019.672191328728	571.500262319965	339.031391551826	1030.174664557388	501.558751452530	345.374957796940	1009.332873134520	427.989635704933	335.906700009593	930.257107647118	306.384799975406	284.110238059914	994.423219404615	198.778744035653	351.047591793940	830.071007497784	391.594972326716	578.382231812560	710.323087430173	344.213509789306	635.001739933503	703.760017176110	235.659113122788	580.624339504994	504.750056721351	150.057045959646	546.636309844556	680.760732316762	118.223396992781	587.440539605606	571.901894969883	97.221361401134	617.517890232491	760.426839199765	31.860788118831	605.458236381276	881.068570934460	38.232909648370	391.557367455308	955.714956580508	35.896249589424	311.109627860145	1037.482897658420	97.446015856162	338.269107025713	1166.959674181937	46.364611172928	311.130626219450	785.848294961180	1099.305679499526	179.580063608798	772.921733632648	837.899746462867	185.179620164182	1001.921983407082	1096.581744484524	732.184217741334	1232.617427429224	1117.216179682913	635.183097976482	
